<svg viewBox="0 0 591 110" fill="none" xmlns="http://www.w3.org/2000/svg">
<path fill-rule="evenodd" clip-rule="evenodd" d="M84.2291 57.1559C78.921 53.7424 77.5787 46.9112 79.0805 41.2196C80.3315 36.478 80.4142 31.3099 79.0952 26.0712C74.7644 8.87042 56.9618 -2.57812 39.332 0.50021C21.7022 3.57854 10.9212 20.018 15.252 37.2189C16.553 42.3857 19.0695 47.0335 22.4317 50.9245C26.4945 55.6262 28.5112 62.2789 25.3185 67.1474L24.6942 68.0993C21.9678 72.2568 16.1482 73.3044 11.0519 74.2559C7.45725 74.927 4.20824 76.9169 2.13318 80.0811C-2.08232 86.5092 0.1434 95.3491 7.10446 99.8256C14.0655 104.302 23.1259 102.72 27.3414 96.2921C29.4789 93.0327 29.9603 89.1531 29.008 85.5368C27.6313 80.3088 25.9428 74.2703 28.8066 69.9032L30.6407 67.1066C33.2251 63.1657 38.3887 61.9159 43.3438 62.7789C48.72 63.7152 54.0792 67.0737 55.3706 72.2026L55.8288 74.0224C57.0765 78.9782 54.0408 83.7094 51.3979 87.883C49.5294 90.8337 48.8527 94.5323 49.8046 98.3129C51.746 106.024 59.7265 111.156 67.6295 109.776C75.5325 108.396 80.3654 101.026 78.424 93.3157C77.4362 89.3926 74.8851 86.1369 71.5762 84.0669C66.7808 81.0668 61.1613 77.6683 59.8345 72.3988L59.5026 71.0806C58.2583 66.1386 61.3809 61.4381 65.6905 58.8803C69.6653 56.5213 74.8069 55.9866 78.9217 58.6328L83.443 61.5404C87.9453 64.4357 89.4077 70.1159 90.7237 75.0921C91.6519 78.6021 93.9311 81.863 97.3577 84.0665C104.319 88.5431 113.379 86.961 117.595 80.533C121.81 74.1049 119.584 65.265 112.623 60.7885C109.094 58.5186 105.024 57.8065 101.32 58.4939C95.9659 59.4877 89.7877 60.7306 85.0586 57.6894L84.2291 57.1559Z" fill="url(#paint0_linear_292_36822)"/>
<path d="M60.9952 37.5626C63.1466 46.1073 57.5544 54.3152 48.5046 55.8954C39.4549 57.4755 30.3745 51.8297 28.2231 43.2849C26.0717 34.7402 31.664 26.5324 40.7137 24.9522C49.7635 23.372 58.8438 29.0179 60.9952 37.5626Z" fill="url(#paint1_linear_292_36822)"/>
<path fill-rule="evenodd" clip-rule="evenodd" d="M47.4658 51.7696C54.3119 50.5742 58.3124 44.4406 56.7666 38.301C55.2207 32.1613 48.5986 27.8825 41.7525 29.0779C34.9064 30.2733 30.9059 36.4069 32.4518 42.5466C33.9976 48.6862 40.6197 52.965 47.4658 51.7696ZM48.5046 55.8954C57.5544 54.3152 63.1466 46.1073 60.9952 37.5626C58.8438 29.0179 49.7635 23.372 40.7137 24.9522C31.664 26.5324 26.0717 34.7402 28.2231 43.2849C30.3745 51.8297 39.4549 57.4755 48.5046 55.8954Z" fill="#EDEBF0"/>
<path d="M573.321 44.6875L563.982 75H554.063L568.138 36.6217H574.426L573.321 44.6875ZM581.055 75L571.69 44.6875L570.48 36.6217H576.846L591 75H581.055ZM580.687 60.6872V67.8304H561.035V60.6872H580.687Z" fill="#286BFC"/>
<path d="M539.458 36.6217V75H530.224V36.6217H539.458ZM550.981 36.6217V43.7649H518.964V36.6217H550.981Z" fill="#286BFC"/>
<path d="M498.188 44.6875L488.848 75H478.93L493.005 36.6217H499.293L498.188 44.6875ZM505.922 75L496.557 44.6875L495.346 36.6217H501.713L515.867 75H505.922ZM505.554 60.6872V67.8304H485.902V60.6872H505.554Z" fill="#286BFC"/>
<path d="M454.715 75H446.217L446.27 67.8831H454.715C456.469 67.8831 457.951 67.4614 459.161 66.6179C460.389 65.7745 461.318 64.518 461.95 62.8486C462.599 61.1617 462.923 59.0881 462.923 56.628V54.9674C462.923 53.1223 462.739 51.5056 462.371 50.1174C462.02 48.7116 461.494 47.543 460.792 46.6116C460.091 45.6627 459.214 44.951 458.161 44.4766C457.127 44.0021 455.934 43.7649 454.583 43.7649H446.06V36.6217H454.583C457.179 36.6217 459.556 37.0698 461.713 37.966C463.888 38.8446 465.764 40.1098 467.343 41.7616C468.939 43.3959 470.167 45.3376 471.026 47.5869C471.903 49.8186 472.341 52.2964 472.341 55.0201V56.628C472.341 59.3341 471.903 61.8118 471.026 64.0611C470.167 66.3104 468.948 68.2522 467.369 69.8864C465.791 71.5206 463.923 72.7859 461.766 73.6821C459.626 74.5607 457.276 75 454.715 75ZM451.505 36.6217V75H442.271V36.6217H451.505Z" fill="#286BFC"/>
<path d="M398.489 53.4248V69.1873C397.84 69.9078 396.84 70.6809 395.49 71.5069C394.157 72.3152 392.473 73.0093 390.439 73.5892C388.404 74.1691 386.01 74.459 383.257 74.459C380.714 74.459 378.407 74.0549 376.338 73.2465C374.268 72.4206 372.488 71.2169 370.997 69.6354C369.524 68.0363 368.384 66.0857 367.577 63.7837C366.788 61.4642 366.393 58.8107 366.393 55.8234V53.6883C366.393 50.701 366.797 48.0476 367.603 45.728C368.41 43.4084 369.541 41.4579 370.997 39.8764C372.47 38.2773 374.198 37.0648 376.18 36.2389C378.179 35.413 380.372 35 382.757 35C386.282 35 389.15 35.5623 391.36 36.687C393.569 37.794 395.244 39.3316 396.384 41.2997C397.524 43.2503 398.217 45.5083 398.463 48.0739H389.597C389.422 46.8087 389.088 45.7368 388.597 44.8582C388.124 43.962 387.44 43.2854 386.545 42.8285C385.651 42.3541 384.493 42.1169 383.073 42.1169C381.968 42.1169 380.959 42.3541 380.047 42.8285C379.153 43.303 378.39 44.0235 377.758 44.99C377.127 45.9389 376.636 47.1338 376.285 48.5748C375.952 50.0157 375.785 51.7027 375.785 53.6356V55.8234C375.785 57.7388 375.943 59.417 376.259 60.8579C376.592 62.2989 377.083 63.5026 377.732 64.4691C378.399 65.418 379.24 66.1385 380.258 66.6305C381.292 67.1049 382.511 67.3422 383.914 67.3422C384.897 67.3422 385.738 67.2631 386.44 67.1049C387.142 66.9292 387.72 66.7183 388.176 66.4723C388.65 66.2087 389.009 65.9627 389.255 65.7343V59.7772H382.836V53.4248H398.489Z" fill="#286BFC"/>
<path d="M355.929 35.5535V73.9319H346.722L333.173 50.0509V73.9319H323.939V35.5535H333.173L346.722 59.4346V35.5535H355.929Z" fill="#286BFC"/>
<path d="M312.047 35.5535V73.9319H302.84V35.5535H312.047Z" fill="#286BFC"/>
<path d="M282.854 63.731C282.854 63.1336 282.766 62.5976 282.591 62.1231C282.415 61.6311 282.091 61.1742 281.617 60.7525C281.144 60.3307 280.46 59.909 279.565 59.4873C278.688 59.0479 277.531 58.5911 276.093 58.1166C274.409 57.5543 272.787 56.9217 271.226 56.2188C269.665 55.4983 268.27 54.6636 267.043 53.7147C265.815 52.7482 264.842 51.6236 264.123 50.3408C263.403 49.0404 263.044 47.5292 263.044 45.8071C263.044 44.1553 263.412 42.6704 264.149 41.3524C264.885 40.0169 265.911 38.8835 267.227 37.9522C268.56 37.0032 270.121 36.2828 271.91 35.7907C273.699 35.2811 275.654 35.0263 277.776 35.0263C280.583 35.0263 283.056 35.5184 285.195 36.5024C287.353 37.4689 289.036 38.8484 290.246 40.6408C291.474 42.4156 292.088 44.5155 292.088 46.9405H282.907C282.907 45.974 282.705 45.1217 282.301 44.3837C281.916 43.6456 281.328 43.0658 280.539 42.644C279.75 42.2223 278.759 42.0114 277.566 42.0114C276.408 42.0114 275.435 42.1871 274.646 42.5386C273.857 42.89 273.26 43.3645 272.857 43.962C272.453 44.5418 272.252 45.1832 272.252 45.8861C272.252 46.466 272.41 46.9932 272.725 47.4677C273.059 47.9246 273.523 48.3551 274.12 48.7593C274.733 49.1634 275.47 49.55 276.329 49.919C277.206 50.2881 278.189 50.6483 279.276 50.9997C281.31 51.6499 283.117 52.3792 284.695 53.1875C286.291 53.9783 287.633 54.8833 288.721 55.9025C289.826 56.9041 290.659 58.0463 291.22 59.3291C291.799 60.6119 292.088 62.0616 292.088 63.6783C292.088 65.4004 291.755 66.9292 291.088 68.2647C290.422 69.6002 289.466 70.7337 288.221 71.665C286.976 72.5788 285.485 73.2729 283.748 73.7473C282.012 74.2218 280.074 74.459 277.934 74.459C275.97 74.459 274.032 74.213 272.12 73.721C270.226 73.2114 268.507 72.4382 266.964 71.4014C265.42 70.3471 264.184 69.0028 263.254 67.3685C262.342 65.7167 261.886 63.7574 261.886 61.4905H271.147C271.147 62.6152 271.296 63.5641 271.594 64.3373C271.892 65.1105 272.331 65.7343 272.909 66.2087C273.488 66.6656 274.199 66.9995 275.04 67.2104C275.882 67.4037 276.847 67.5003 277.934 67.5003C279.109 67.5003 280.056 67.3334 280.776 66.9995C281.495 66.6481 282.021 66.1912 282.354 65.6289C282.687 65.049 282.854 64.4163 282.854 63.731Z" fill="#286BFC"/>
<path d="M222.586 35.5535H237.66C240.607 35.5535 243.167 35.9929 245.342 36.8715C247.517 37.7501 249.192 39.0505 250.367 40.7726C251.56 42.4947 252.156 44.621 252.156 47.1514C252.156 49.348 251.814 51.1843 251.13 52.6604C250.446 54.1365 249.49 55.3577 248.262 56.3242C247.052 57.2731 245.64 58.0551 244.027 58.6702L241.001 60.3835H228.347L228.295 53.2403H237.66C238.835 53.2403 239.809 53.0294 240.58 52.6076C241.352 52.1859 241.931 51.5884 242.317 50.8153C242.72 50.0245 242.922 49.0844 242.922 47.9949C242.922 46.8878 242.72 45.9389 242.317 45.1481C241.913 44.3574 241.317 43.7511 240.528 43.3294C239.756 42.9076 238.8 42.6968 237.66 42.6968H231.82V73.9319H222.586V35.5535ZM243.553 73.9319L235.082 56.9568L244.869 56.9041L253.445 73.5365V73.9319H243.553Z" fill="#286BFC"/>
<path d="M196.7 43.6193L187.361 73.9319H177.443L191.518 35.5535H197.805L196.7 43.6193ZM204.435 73.9319L195.069 43.6193L193.859 35.5535H200.226L214.379 73.9319H204.435ZM204.067 59.6191V66.7623H184.415V59.6191H204.067Z" fill="#286BFC"/>
<path d="M159.956 60.9107H150.433V53.7674H159.956C161.254 53.7674 162.306 53.5478 163.113 53.1085C163.92 52.6692 164.507 52.0629 164.876 51.2897C165.262 50.499 165.454 49.6115 165.454 48.6275C165.454 47.5731 165.262 46.5979 164.876 45.7017C164.507 44.8055 163.92 44.085 163.113 43.5402C162.306 42.9779 161.254 42.6968 159.956 42.6968H153.905V73.9319H144.671V35.5535H159.956C163.025 35.5535 165.665 36.1159 167.875 37.2405C170.102 38.3652 171.812 39.9115 173.005 41.8796C174.197 43.8302 174.794 46.0619 174.794 48.5748C174.794 51.0525 174.197 53.2139 173.005 55.059C171.812 56.9041 170.102 58.3451 167.875 59.3818C165.665 60.401 163.025 60.9107 159.956 60.9107Z" fill="#286BFC"/>
<path d="M412.13 51.1633H428.663V58.3224H412.13V51.1633Z" fill="#286BFC"/>
<defs>
<linearGradient id="paint0_linear_292_36822" x1="295.5" y1="0" x2="295.5" y2="110" gradientUnits="userSpaceOnUse">
<stop stop-color="#1450D0"/>
<stop offset="1" stop-color="#286CFD"/>
</linearGradient>
<linearGradient id="paint1_linear_292_36822" x1="295.5" y1="0" x2="295.5" y2="110" gradientUnits="userSpaceOnUse">
<stop stop-color="#1450D0"/>
<stop offset="1" stop-color="#286CFD"/>
</linearGradient>
</defs>
</svg>
