<svg width="388" height="72" viewBox="0 0 388 72" fill="none" xmlns="http://www.w3.org/2000/svg">
<path fill-rule="evenodd" clip-rule="evenodd" d="M55.3104 37.4112C51.8345 35.1768 50.9556 30.7055 51.9389 26.9801C52.7581 23.8765 52.8123 20.4938 51.9486 17.0648C49.1127 5.80609 37.4551 -1.6875 25.9107 0.32741C14.3663 2.34232 7.30673 13.1027 10.1427 24.3614C10.9945 27.7434 12.6424 30.7856 14.844 33.3324C17.5044 36.4099 18.825 40.7644 16.7344 43.951L16.3256 44.5741C14.5403 47.2953 10.7295 47.9811 7.39233 48.6038C5.03845 49.0431 2.91092 50.3456 1.55212 52.4167C-1.20828 56.6242 0.249175 62.4103 4.80743 65.3404C9.36569 68.2705 15.2986 67.235 18.059 63.0275C19.4587 60.8941 19.774 58.3548 19.1504 55.9877C18.2489 52.5657 17.1432 48.6133 19.0185 45.7548L20.2195 43.9243C21.9118 41.3448 25.293 40.5268 28.5378 41.0916C32.0582 41.7045 35.5675 43.9028 36.4131 47.2599L36.7132 48.451C37.5303 51.6949 35.5424 54.7916 33.8118 57.5234C32.5882 59.4548 32.1451 61.8757 32.7684 64.3503C34.0397 69.3973 39.2655 72.7565 44.4406 71.8532C49.6157 70.95 52.7803 66.1264 51.509 61.0794C50.8622 58.5115 49.1917 56.3805 47.025 55.0256C43.8848 53.0619 40.205 50.8374 39.3362 47.3883L39.1189 46.5255C38.3041 43.2907 40.3488 40.214 43.1709 38.5398C45.7736 36.9957 49.1405 36.6458 51.8349 38.3778L54.7956 40.281C57.7438 42.1761 58.7014 45.894 59.5632 49.1512C60.171 51.4486 61.6635 53.583 63.9073 55.0254C68.4655 57.9555 74.3985 56.9199 77.1589 52.7125C79.9193 48.505 78.4618 42.7189 73.9035 39.7888C71.5923 38.3031 68.9275 37.837 66.5022 38.2869C62.9959 38.9374 58.9503 39.7509 55.8535 37.7603L55.3104 37.4112Z" fill="white"/>
<path d="M40.0963 24.5864C41.5051 30.1793 37.8432 35.5518 31.9172 36.5861C25.9912 37.6203 20.0452 33.9249 18.6364 28.332C17.2276 22.739 20.8895 17.3666 26.8155 16.3323C32.7415 15.298 38.6875 18.9935 40.0963 24.5864Z" fill="white"/>
<path fill-rule="evenodd" clip-rule="evenodd" d="M31.237 33.8856C35.7199 33.1031 38.3395 29.0884 37.3273 25.0697C36.315 21.0511 31.9787 18.2504 27.4958 19.0328C23.0128 19.8153 20.3932 23.83 21.4054 27.8487C22.4177 31.8673 26.754 34.668 31.237 33.8856ZM31.9172 36.5861C37.8432 35.5518 41.5051 30.1793 40.0963 24.5864C38.6875 18.9935 32.7415 15.298 26.8155 16.3323C20.8895 17.3666 17.2276 22.739 18.6364 28.332C20.0452 33.9249 25.9912 37.6203 31.9172 36.5861Z" fill="#102A43"/>
<path d="M375.579 29.25L369.463 49.0909H362.968L372.185 23.9706H376.302L375.579 29.25ZM380.643 49.0909L374.511 29.25L373.718 23.9706H377.887L387.155 49.0909H380.643ZM380.402 39.7225V44.3981H367.534V39.7225H380.402Z" fill="white"/>
<path d="M353.404 23.9706V49.0909H347.358V23.9706H353.404ZM360.95 23.9706V28.6461H339.984V23.9706H360.95Z" fill="white"/>
<path d="M326.38 29.25L320.264 49.0909H313.769L322.986 23.9706H327.103L326.38 29.25ZM331.444 49.0909L325.312 29.25L324.519 23.9706H328.688L337.956 49.0909H331.444ZM331.203 39.7225V44.3981H318.335V39.7225H331.203Z" fill="white"/>
<path d="M297.913 49.0909H292.348L292.383 44.4326H297.913C299.061 44.4326 300.032 44.1566 300.824 43.6045C301.628 43.0524 302.237 42.23 302.65 41.1373C303.075 40.0331 303.288 38.6759 303.288 37.0656V35.9786C303.288 34.7709 303.167 33.7127 302.926 32.8041C302.696 31.8839 302.352 31.119 301.892 30.5094C301.433 29.8883 300.859 29.4225 300.17 29.1119C299.492 28.8014 298.711 28.6461 297.827 28.6461H292.245V23.9706H297.827C299.526 23.9706 301.083 24.2639 302.495 24.8505C303.919 25.4256 305.148 26.2537 306.182 27.3349C307.227 28.4046 308.031 29.6755 308.594 31.1478C309.168 32.6086 309.455 34.2303 309.455 36.0131V37.0656C309.455 38.8369 309.168 40.4587 308.594 41.9309C308.031 43.4032 307.233 44.6741 306.199 45.7438C305.165 46.8135 303.942 47.6417 302.53 48.2283C301.129 48.8034 299.59 49.0909 297.913 49.0909ZM295.811 23.9706V49.0909H289.764V23.9706H295.811Z" fill="white"/>
<path d="M261.095 34.9689V45.2862C260.67 45.7578 260.015 46.2639 259.131 46.8045C258.258 47.3336 257.156 47.7879 255.823 48.1675C254.491 48.547 252.923 48.7368 251.12 48.7368C249.455 48.7368 247.945 48.4723 246.59 47.9432C245.234 47.4026 244.069 46.6147 243.093 45.5795C242.128 44.5328 241.381 43.2561 240.853 41.7494C240.336 40.2311 240.078 38.4943 240.078 36.539V35.1415C240.078 33.1861 240.342 31.4493 240.87 29.9311C241.399 28.4128 242.139 27.1361 243.093 26.1009C244.057 25.0542 245.188 24.2606 246.486 23.72C247.796 23.1794 249.231 22.9091 250.793 22.9091C253.101 22.9091 254.979 23.2772 256.426 24.0133C257.873 24.7379 258.97 25.7443 259.717 27.0326C260.463 28.3093 260.917 29.7873 261.078 31.4666H255.272C255.157 30.6384 254.939 29.9368 254.617 29.3617C254.307 28.7751 253.859 28.3323 253.274 28.0332C252.688 27.7227 251.93 27.5674 251 27.5674C250.276 27.5674 249.616 27.7227 249.019 28.0332C248.433 28.3438 247.933 28.8154 247.52 29.448C247.106 30.0691 246.785 30.8512 246.555 31.7944C246.337 32.7375 246.228 33.8417 246.228 35.107V36.539C246.228 37.7927 246.331 38.8911 246.538 39.8343C246.756 40.7774 247.078 41.5653 247.503 42.1979C247.939 42.819 248.49 43.2906 249.156 43.6127C249.834 43.9232 250.632 44.0785 251.551 44.0785C252.194 44.0785 252.745 44.0267 253.205 43.9232C253.664 43.8082 254.043 43.6702 254.342 43.5092C254.652 43.3366 254.887 43.1756 255.048 43.0261V39.1269H250.845V34.9689H261.095Z" fill="white"/>
<path d="M233.226 23.2714V48.3918H227.196L218.324 32.7606V48.3918H212.278V23.2714H218.324L227.196 38.9026V23.2714H233.226Z" fill="white"/>
<path d="M204.491 23.2714V48.3918H198.461V23.2714H204.491Z" fill="white"/>
<path d="M185.374 41.7148C185.374 41.3238 185.317 40.973 185.202 40.6624C185.087 40.3404 184.875 40.0413 184.565 39.7653C184.255 39.4892 183.807 39.2132 183.221 38.9371C182.647 38.6496 181.889 38.3505 180.947 38.04C179.844 37.6719 178.782 37.2578 177.76 36.7977C176.738 36.3262 175.825 35.7798 175.021 35.1587C174.217 34.5261 173.579 33.79 173.109 32.9503C172.638 32.0992 172.402 31.11 172.402 29.9828C172.402 28.9016 172.643 27.9297 173.126 27.067C173.608 26.1929 174.28 25.451 175.141 24.8414C176.014 24.2203 177.036 23.7487 178.208 23.4267C179.379 23.0931 180.66 22.9263 182.049 22.9263C183.887 22.9263 185.506 23.2484 186.908 23.8925C188.32 24.5251 189.423 25.428 190.215 26.6012C191.019 27.7629 191.421 29.1374 191.421 30.7247H185.409C185.409 30.0921 185.277 29.5342 185.013 29.0511C184.76 28.5681 184.375 28.1885 183.858 27.9124C183.342 27.6364 182.693 27.4984 181.912 27.4984C181.154 27.4984 180.516 27.6134 179.999 27.8434C179.483 28.0735 179.092 28.384 178.828 28.7751C178.564 29.1547 178.432 29.5745 178.432 30.0346C178.432 30.4141 178.535 30.7592 178.742 31.0697C178.96 31.3688 179.264 31.6506 179.655 31.9151C180.057 32.1797 180.539 32.4327 181.102 32.6743C181.676 32.9158 182.319 33.1516 183.031 33.3816C184.364 33.8072 185.547 34.2845 186.58 34.8136C187.625 35.3312 188.504 35.9236 189.216 36.5907C189.94 37.2463 190.485 37.9939 190.853 38.8336C191.232 39.6732 191.421 40.6222 191.421 41.6803C191.421 42.8075 191.203 43.8082 190.766 44.6824C190.33 45.5565 189.704 46.2984 188.889 46.908C188.073 47.5061 187.097 47.9604 185.96 48.271C184.823 48.5815 183.554 48.7368 182.153 48.7368C180.867 48.7368 179.598 48.5758 178.346 48.2537C177.105 47.9202 175.98 47.4141 174.969 46.7355C173.958 46.0453 173.149 45.1654 172.54 44.0958C171.943 43.0146 171.644 41.7321 171.644 40.2483H177.708C177.708 40.9845 177.806 41.6056 178.001 42.1117C178.196 42.6178 178.483 43.0261 178.862 43.3366C179.241 43.6357 179.707 43.8542 180.258 43.9922C180.809 44.1188 181.441 44.182 182.153 44.182C182.922 44.182 183.543 44.0728 184.013 43.8542C184.484 43.6242 184.829 43.3251 185.047 42.9571C185.265 42.5775 185.374 42.1634 185.374 41.7148Z" fill="white"/>
<path d="M145.909 23.2714H155.781C157.71 23.2714 159.387 23.559 160.811 24.1341C162.235 24.7092 163.332 25.5603 164.101 26.6875C164.882 27.8147 165.273 29.2064 165.273 30.8627C165.273 32.3005 165.049 33.5024 164.601 34.4686C164.153 35.4348 163.527 36.2342 162.723 36.8668C161.931 37.4879 161.006 37.9997 159.949 38.4023L157.968 39.5237H149.682L149.648 34.8482H155.781C156.55 34.8482 157.187 34.7101 157.693 34.4341C158.198 34.158 158.577 33.767 158.83 33.2609C159.094 32.7433 159.226 32.1279 159.226 31.4148C159.226 30.6902 159.094 30.0691 158.83 29.5515C158.566 29.0339 158.175 28.6371 157.658 28.361C157.153 28.085 156.527 27.947 155.781 27.947H151.956V48.3918H145.909V23.2714ZM159.639 48.3918L154.092 37.2808L160.501 37.2463L166.117 48.133V48.3918H159.639Z" fill="white"/>
<path d="M128.959 28.5508L122.843 48.3918H116.349L125.565 23.2714H129.683L128.959 28.5508ZM134.024 48.3918L127.891 28.5508L127.099 23.2714H131.268L140.536 48.3918H134.024ZM133.783 39.0234V43.6989H120.914V39.0234H133.783Z" fill="white"/>
<path d="M104.898 39.8688H98.6618V35.1932H104.898C105.748 35.1932 106.437 35.0495 106.965 34.7619C107.494 34.4744 107.878 34.0775 108.12 33.5714C108.372 33.0539 108.499 32.473 108.499 31.8289C108.499 31.1388 108.372 30.5004 108.12 29.9138C107.878 29.3272 107.494 28.8556 106.965 28.4991C106.437 28.131 105.748 27.947 104.898 27.947H100.936V48.3918H94.8891V23.2714H104.898C106.908 23.2714 108.636 23.6395 110.083 24.3756C111.542 25.1117 112.662 26.1239 113.443 27.4121C114.224 28.6889 114.614 30.1496 114.614 31.7944C114.614 33.4162 114.224 34.8309 113.443 36.0386C112.662 37.2463 111.542 38.1895 110.083 38.8681C108.636 39.5352 106.908 39.8688 104.898 39.8688Z" fill="white"/>
<path d="M270.027 33.4887H280.854V38.1747H270.027V33.4887Z" fill="white"/>
</svg>
