<svg xmlns="http://www.w3.org/2000/svg" xmlns:xlink="http://www.w3.org/1999/xlink" viewBox="0 0 260 260"><defs><clipPath id="clip-path"><path id="SVGID" d="M800,891H0V441H800Z" style="fill:none"/></clipPath></defs><g id="social-share-img"><g style="clip-path:url(#clip-path)"><polygon points="348.5 202.18 -9.6 -20.62 -9.6 513.06 113.89 585.01 732.52 441.1 732.53 441.1 348.5 202.18" style="fill:#00decc"/></g></g><g id="favicon-192"><polygon points="110.08 0 259.83 93.17 259.83 93.17 259.87 93.2 260 92.99 260 0 110.08 0" style="fill:#00b5de"/><polygon points="259.83 93.17 259.83 93.17 110.08 0 0 0 0 153.6 0.01 153.61 259.83 93.17" style="fill:#00decc"/><polygon points="260 260 260 109.34 165.92 260 260 260" style="fill:#ff5529"/><polygon points="165.92 260 260 109.34 260 109.34 0 170.45 0 260 165.92 260" style="fill:#ff9640"/></g></svg>